%TF.GenerationSoftware,KiCad,Pcbnew,10.0.1*%
%TF.CreationDate,2026-05-25T06:32:30+05:30*%
%TF.ProjectId,LED_Driver_V2,4c45445f-4472-4697-9665-725f56322e6b,1*%
%TF.SameCoordinates,Original*%
%TF.FileFunction,Copper,L1,Top*%
%TF.FilePolarity,Positive*%
%FSLAX46Y46*%
G04 Gerber Fmt 4.6, Leading zero omitted, Abs format (unit mm)*
G04 Created by KiCad (PCBNEW 10.0.1) date 2026-05-25 06:32:30*
%MOMM*%
%LPD*%
G01*
G04 APERTURE LIST*
%TA.AperFunction,ComponentPad*%
%ADD10R,1.500000X1.500000*%
%TD*%
%TA.AperFunction,ComponentPad*%
%ADD11C,1.500000*%
%TD*%
%TA.AperFunction,ComponentPad*%
%ADD12C,1.600000*%
%TD*%
%TA.AperFunction,ComponentPad*%
%ADD13R,1.800000X1.800000*%
%TD*%
%TA.AperFunction,ComponentPad*%
%ADD14C,1.800000*%
%TD*%
%TA.AperFunction,ComponentPad*%
%ADD15R,1.700000X1.700000*%
%TD*%
%TA.AperFunction,ComponentPad*%
%ADD16C,1.700000*%
%TD*%
%TA.AperFunction,ComponentPad*%
%ADD17C,2.400000*%
%TD*%
%TA.AperFunction,Conductor*%
%ADD18C,0.700000*%
%TD*%
G04 APERTURE END LIST*
D10*
%TO.P,Q2,1,E_1*%
%TO.N,GND*%
X157140000Y-86000000D03*
D11*
%TO.P,Q2,2,B_2*%
%TO.N,Net-(Q2-B)*%
X157140000Y-88540000D03*
%TO.P,Q2,3,C_3*%
%TO.N,Net-(D2-K)*%
X157140000Y-91080000D03*
%TD*%
D12*
%TO.P,R4,1*%
%TO.N,+12V*%
X138690000Y-90500000D03*
%TO.P,R4,2*%
%TO.N,Net-(D2-A)*%
X146310000Y-90500000D03*
%TD*%
D13*
%TO.P,D2,1,K_1*%
%TO.N,Net-(D2-K)*%
X152500000Y-90500000D03*
D14*
%TO.P,D2,2,A_2*%
%TO.N,Net-(D2-A)*%
X149960000Y-90500000D03*
%TD*%
D12*
%TO.P,R6,1*%
%TO.N,Net-(Q2-B)*%
X152120000Y-96294796D03*
%TO.P,R6,2*%
%TO.N,Net-(SW2-B)*%
X144500000Y-96294796D03*
%TD*%
D15*
%TO.P,J2,1,Pin_1_1*%
%TO.N,+12V*%
X138725000Y-86000000D03*
D16*
%TO.P,J2,2,Pin_2_2*%
%TO.N,GND*%
X141265000Y-86000000D03*
%TD*%
D17*
%TO.P,SW2,1,A_1*%
%TO.N,+12V*%
X139000000Y-100000000D03*
%TO.P,SW2,2,B_2*%
%TO.N,Net-(SW2-B)*%
X144300000Y-100000000D03*
%TD*%
%TO.N,+12V*%
D18*
X139000000Y-100000000D02*
X139000000Y-99500000D01*
X138690000Y-99190000D02*
X138690000Y-90500000D01*
X138725000Y-86000000D02*
X138725000Y-90465000D01*
X139000000Y-99500000D02*
X138690000Y-99190000D01*
X138725000Y-90465000D02*
X138690000Y-90500000D01*
%TO.N,Net-(D2-K)*%
X156560000Y-90500000D02*
X157140000Y-91080000D01*
X152500000Y-90500000D02*
X156560000Y-90500000D01*
%TO.N,Net-(D2-A)*%
X146310000Y-90500000D02*
X149960000Y-90500000D01*
%TO.N,Net-(Q2-B)*%
X161000000Y-90000000D02*
X161000000Y-95500000D01*
X159540000Y-88540000D02*
X161000000Y-90000000D01*
X161000000Y-95500000D02*
X160205204Y-96294796D01*
X157140000Y-88540000D02*
X159540000Y-88540000D01*
X160205204Y-96294796D02*
X152120000Y-96294796D01*
%TO.N,Net-(SW2-B)*%
X144500000Y-96294796D02*
X144500000Y-99800000D01*
X144500000Y-99800000D02*
X144300000Y-100000000D01*
%TD*%
%TA.AperFunction,Conductor*%
%TO.N,GND*%
G36*
X161506921Y-77001280D02*
G01*
X161523877Y-77003190D01*
X161597267Y-77011458D01*
X161624332Y-77017636D01*
X161703538Y-77045351D01*
X161728548Y-77057395D01*
X161799605Y-77102043D01*
X161821312Y-77119355D01*
X161880643Y-77178686D01*
X161897956Y-77200395D01*
X161942601Y-77271447D01*
X161954648Y-77296464D01*
X161982361Y-77375662D01*
X161988540Y-77402734D01*
X161998719Y-77493076D01*
X161999499Y-77506959D01*
X161999499Y-89567149D01*
X161979814Y-89634188D01*
X161927010Y-89679943D01*
X161857852Y-89689887D01*
X161794296Y-89660862D01*
X161760938Y-89614602D01*
X161753704Y-89597137D01*
X161753703Y-89597135D01*
X161753702Y-89597133D01*
X161660627Y-89457838D01*
X161660624Y-89457834D01*
X160082165Y-87879375D01*
X160082161Y-87879372D01*
X159942866Y-87786297D01*
X159942863Y-87786296D01*
X159833416Y-87740962D01*
X159833414Y-87740961D01*
X159788086Y-87722185D01*
X159788074Y-87722182D01*
X159623771Y-87689500D01*
X159623767Y-87689500D01*
X158109336Y-87689500D01*
X158042297Y-87669815D01*
X158021655Y-87653181D01*
X157954648Y-87586174D01*
X157954646Y-87586172D01*
X157800692Y-87474317D01*
X157758028Y-87418988D01*
X157752049Y-87349374D01*
X157784655Y-87287579D01*
X157845494Y-87253222D01*
X157873579Y-87250000D01*
X157937828Y-87250000D01*
X157937844Y-87249999D01*
X157997372Y-87243598D01*
X157997379Y-87243596D01*
X158132086Y-87193354D01*
X158132093Y-87193350D01*
X158247187Y-87107190D01*
X158247190Y-87107187D01*
X158333350Y-86992093D01*
X158333354Y-86992086D01*
X158383596Y-86857379D01*
X158383598Y-86857372D01*
X158389999Y-86797844D01*
X158390000Y-86797827D01*
X158390000Y-86250000D01*
X157455686Y-86250000D01*
X157460080Y-86245606D01*
X157512741Y-86154394D01*
X157540000Y-86052661D01*
X157540000Y-85947339D01*
X157512741Y-85845606D01*
X157460080Y-85754394D01*
X157455686Y-85750000D01*
X158390000Y-85750000D01*
X158390000Y-85202172D01*
X158389999Y-85202155D01*
X158383598Y-85142627D01*
X158383596Y-85142620D01*
X158333354Y-85007913D01*
X158333350Y-85007906D01*
X158247190Y-84892812D01*
X158247187Y-84892809D01*
X158132093Y-84806649D01*
X158132086Y-84806645D01*
X157997379Y-84756403D01*
X157997372Y-84756401D01*
X157937844Y-84750000D01*
X157390000Y-84750000D01*
X157390000Y-85684314D01*
X157385606Y-85679920D01*
X157294394Y-85627259D01*
X157192661Y-85600000D01*
X157087339Y-85600000D01*
X156985606Y-85627259D01*
X156894394Y-85679920D01*
X156890000Y-85684314D01*
X156890000Y-84750000D01*
X156342155Y-84750000D01*
X156282627Y-84756401D01*
X156282620Y-84756403D01*
X156147913Y-84806645D01*
X156147906Y-84806649D01*
X156032812Y-84892809D01*
X156032809Y-84892812D01*
X155946649Y-85007906D01*
X155946645Y-85007913D01*
X155896403Y-85142620D01*
X155896401Y-85142627D01*
X155890000Y-85202155D01*
X155890000Y-85750000D01*
X156824314Y-85750000D01*
X156819920Y-85754394D01*
X156767259Y-85845606D01*
X156740000Y-85947339D01*
X156740000Y-86052661D01*
X156767259Y-86154394D01*
X156819920Y-86245606D01*
X156824314Y-86250000D01*
X155890000Y-86250000D01*
X155890000Y-86797844D01*
X155896401Y-86857372D01*
X155896403Y-86857379D01*
X155946645Y-86992086D01*
X155946649Y-86992093D01*
X156032809Y-87107187D01*
X156032812Y-87107190D01*
X156147906Y-87193350D01*
X156147913Y-87193354D01*
X156282620Y-87243596D01*
X156282627Y-87243598D01*
X156342155Y-87249999D01*
X156342172Y-87250000D01*
X156406421Y-87250000D01*
X156473460Y-87269685D01*
X156519215Y-87322489D01*
X156529159Y-87391647D01*
X156500134Y-87455203D01*
X156479307Y-87474317D01*
X156325354Y-87586172D01*
X156325352Y-87586174D01*
X156325351Y-87586174D01*
X156186174Y-87725351D01*
X156186174Y-87725352D01*
X156186172Y-87725354D01*
X156174833Y-87740961D01*
X156070476Y-87884594D01*
X155981117Y-88059970D01*
X155920290Y-88247173D01*
X155889500Y-88441577D01*
X155889500Y-88638422D01*
X155920290Y-88832826D01*
X155981117Y-89020029D01*
X156039181Y-89133985D01*
X156070476Y-89195405D01*
X156186172Y-89354646D01*
X156186174Y-89354648D01*
X156269345Y-89437819D01*
X156302830Y-89499142D01*
X156297846Y-89568834D01*
X156255974Y-89624767D01*
X156190510Y-89649184D01*
X156181664Y-89649500D01*
X154022351Y-89649500D01*
X153955312Y-89629815D01*
X153909557Y-89577011D01*
X153899061Y-89538752D01*
X153894091Y-89492516D01*
X153843797Y-89357671D01*
X153843793Y-89357664D01*
X153757547Y-89242455D01*
X153757544Y-89242452D01*
X153642335Y-89156206D01*
X153642328Y-89156202D01*
X153507482Y-89105908D01*
X153507483Y-89105908D01*
X153447883Y-89099501D01*
X153447881Y-89099500D01*
X153447873Y-89099500D01*
X153447864Y-89099500D01*
X151552129Y-89099500D01*
X151552123Y-89099501D01*
X151492516Y-89105908D01*
X151357671Y-89156202D01*
X151357664Y-89156206D01*
X151242455Y-89242452D01*
X151242452Y-89242455D01*
X151156206Y-89357664D01*
X151156203Y-89357669D01*
X151126398Y-89437581D01*
X151084526Y-89493514D01*
X151019062Y-89517931D01*
X150950789Y-89503079D01*
X150922535Y-89481928D01*
X150872363Y-89431756D01*
X150872358Y-89431752D01*
X150694025Y-89302187D01*
X150694024Y-89302186D01*
X150694022Y-89302185D01*
X150576791Y-89242452D01*
X150497606Y-89202104D01*
X150497603Y-89202103D01*
X150287952Y-89133985D01*
X150179086Y-89116742D01*
X150070222Y-89099500D01*
X149849778Y-89099500D01*
X149777201Y-89110995D01*
X149632047Y-89133985D01*
X149422396Y-89202103D01*
X149422393Y-89202104D01*
X149225974Y-89302187D01*
X149047641Y-89431752D01*
X149047636Y-89431756D01*
X148891759Y-89587633D01*
X148891757Y-89587636D01*
X148883946Y-89598387D01*
X148828615Y-89641052D01*
X148783629Y-89649500D01*
X147350047Y-89649500D01*
X147283008Y-89629815D01*
X147262366Y-89613181D01*
X147157213Y-89508028D01*
X146991613Y-89387715D01*
X146991612Y-89387714D01*
X146991610Y-89387713D01*
X146932636Y-89357664D01*
X146809223Y-89294781D01*
X146614534Y-89231522D01*
X146428799Y-89202105D01*
X146412352Y-89199500D01*
X146207648Y-89199500D01*
X146191201Y-89202105D01*
X146005465Y-89231522D01*
X145810776Y-89294781D01*
X145628386Y-89387715D01*
X145462786Y-89508028D01*
X145318028Y-89652786D01*
X145197715Y-89818386D01*
X145104781Y-90000776D01*
X145041522Y-90195465D01*
X145009500Y-90397648D01*
X145009500Y-90602351D01*
X145041522Y-90804534D01*
X145104781Y-90999223D01*
X145168691Y-91124653D01*
X145196086Y-91178417D01*
X145197715Y-91181613D01*
X145318028Y-91347213D01*
X145462786Y-91491971D01*
X145617749Y-91604556D01*
X145628390Y-91612287D01*
X145744607Y-91671503D01*
X145810776Y-91705218D01*
X145810778Y-91705218D01*
X145810781Y-91705220D01*
X145903681Y-91735405D01*
X146005465Y-91768477D01*
X146106557Y-91784488D01*
X146207648Y-91800500D01*
X146207649Y-91800500D01*
X146412351Y-91800500D01*
X146412352Y-91800500D01*
X146614534Y-91768477D01*
X146809219Y-91705220D01*
X146991610Y-91612287D01*
X147127320Y-91513689D01*
X147157213Y-91491971D01*
X147157215Y-91491968D01*
X147157219Y-91491966D01*
X147262366Y-91386819D01*
X147323689Y-91353334D01*
X147350047Y-91350500D01*
X148783629Y-91350500D01*
X148850668Y-91370185D01*
X148883946Y-91401613D01*
X148891757Y-91412363D01*
X148891759Y-91412366D01*
X149047636Y-91568243D01*
X149047641Y-91568247D01*
X149108258Y-91612287D01*
X149225978Y-91697815D01*
X149354375Y-91763237D01*
X149422393Y-91797895D01*
X149422396Y-91797896D01*
X149527221Y-91831955D01*
X149632049Y-91866015D01*
X149849778Y-91900500D01*
X149849779Y-91900500D01*
X150070221Y-91900500D01*
X150070222Y-91900500D01*
X150287951Y-91866015D01*
X150497606Y-91797895D01*
X150694022Y-91697815D01*
X150872365Y-91568242D01*
X150922536Y-91518070D01*
X150983857Y-91484586D01*
X151053548Y-91489570D01*
X151109482Y-91531441D01*
X151126398Y-91562419D01*
X151156202Y-91642328D01*
X151156206Y-91642335D01*
X151242452Y-91757544D01*
X151242455Y-91757547D01*
X151357664Y-91843793D01*
X151357671Y-91843797D01*
X151492517Y-91894091D01*
X151492516Y-91894091D01*
X151499444Y-91894835D01*
X151552127Y-91900500D01*
X153447872Y-91900499D01*
X153507483Y-91894091D01*
X153642331Y-91843796D01*
X153757546Y-91757546D01*
X153843796Y-91642331D01*
X153894091Y-91507483D01*
X153899062Y-91461242D01*
X153925799Y-91396694D01*
X153983191Y-91356846D01*
X154022351Y-91350500D01*
X155822945Y-91350500D01*
X155889984Y-91370185D01*
X155935739Y-91422989D01*
X155940876Y-91436181D01*
X155981117Y-91560029D01*
X156051323Y-91697815D01*
X156070476Y-91735405D01*
X156186172Y-91894646D01*
X156325354Y-92033828D01*
X156484595Y-92149524D01*
X156567455Y-92191743D01*
X156659970Y-92238882D01*
X156659972Y-92238882D01*
X156659975Y-92238884D01*
X156760317Y-92271487D01*
X156847173Y-92299709D01*
X157041578Y-92330500D01*
X157041583Y-92330500D01*
X157238422Y-92330500D01*
X157432826Y-92299709D01*
X157620025Y-92238884D01*
X157795405Y-92149524D01*
X157954646Y-92033828D01*
X158093828Y-91894646D01*
X158209524Y-91735405D01*
X158298884Y-91560025D01*
X158359709Y-91372826D01*
X158368981Y-91314284D01*
X158390500Y-91178422D01*
X158390500Y-90981577D01*
X158359709Y-90787173D01*
X158298882Y-90599970D01*
X158209523Y-90424594D01*
X158194307Y-90403651D01*
X158093828Y-90265354D01*
X157954646Y-90126172D01*
X157875025Y-90068324D01*
X157795403Y-90010474D01*
X157618787Y-89920485D01*
X157567990Y-89872511D01*
X157551195Y-89804690D01*
X157573732Y-89738555D01*
X157618787Y-89699515D01*
X157795403Y-89609525D01*
X157795402Y-89609525D01*
X157795405Y-89609524D01*
X157954646Y-89493828D01*
X158021655Y-89426819D01*
X158082978Y-89393334D01*
X158109336Y-89390500D01*
X159136349Y-89390500D01*
X159203388Y-89410185D01*
X159224030Y-89426819D01*
X160113181Y-90315970D01*
X160146666Y-90377293D01*
X160149500Y-90403651D01*
X160149500Y-95096349D01*
X160129815Y-95163388D01*
X160113181Y-95184030D01*
X159889234Y-95407977D01*
X159827911Y-95441462D01*
X159801553Y-95444296D01*
X153160047Y-95444296D01*
X153093008Y-95424611D01*
X153072366Y-95407977D01*
X152967213Y-95302824D01*
X152801613Y-95182511D01*
X152801612Y-95182510D01*
X152801610Y-95182509D01*
X152733315Y-95147711D01*
X152619223Y-95089577D01*
X152424534Y-95026318D01*
X152249995Y-94998674D01*
X152222352Y-94994296D01*
X152017648Y-94994296D01*
X151993329Y-94998147D01*
X151815465Y-95026318D01*
X151620776Y-95089577D01*
X151438386Y-95182511D01*
X151272786Y-95302824D01*
X151128028Y-95447582D01*
X151007715Y-95613182D01*
X150914781Y-95795572D01*
X150851522Y-95990261D01*
X150819500Y-96192444D01*
X150819500Y-96397147D01*
X150851522Y-96599330D01*
X150914781Y-96794019D01*
X151007715Y-96976409D01*
X151128028Y-97142009D01*
X151272786Y-97286767D01*
X151427749Y-97399352D01*
X151438390Y-97407083D01*
X151554607Y-97466299D01*
X151620776Y-97500014D01*
X151620778Y-97500014D01*
X151620781Y-97500016D01*
X151725137Y-97533923D01*
X151815465Y-97563273D01*
X151916557Y-97579284D01*
X152017648Y-97595296D01*
X152017649Y-97595296D01*
X152222351Y-97595296D01*
X152222352Y-97595296D01*
X152424534Y-97563273D01*
X152619219Y-97500016D01*
X152801610Y-97407083D01*
X152937320Y-97308485D01*
X152967213Y-97286767D01*
X152967215Y-97286764D01*
X152967219Y-97286762D01*
X153072366Y-97181615D01*
X153133689Y-97148130D01*
X153160047Y-97145296D01*
X160288972Y-97145296D01*
X160288973Y-97145295D01*
X160453286Y-97112612D01*
X160501094Y-97092809D01*
X160608067Y-97048500D01*
X160747366Y-96955423D01*
X161660626Y-96042162D01*
X161753704Y-95902863D01*
X161760938Y-95885397D01*
X161804777Y-95830995D01*
X161871071Y-95808929D01*
X161938771Y-95826207D01*
X161986382Y-95877344D01*
X161999499Y-95932850D01*
X161999499Y-115493039D01*
X161998719Y-115506921D01*
X161998719Y-115506922D01*
X161988540Y-115597264D01*
X161982361Y-115624336D01*
X161954648Y-115703534D01*
X161942601Y-115728551D01*
X161897956Y-115799603D01*
X161880643Y-115821312D01*
X161821312Y-115880643D01*
X161799603Y-115897956D01*
X161728551Y-115942601D01*
X161703534Y-115954648D01*
X161624336Y-115982361D01*
X161597264Y-115988540D01*
X161506922Y-115998719D01*
X161493039Y-115999499D01*
X128506960Y-115999499D01*
X128493077Y-115998719D01*
X128402734Y-115988540D01*
X128375662Y-115982361D01*
X128296464Y-115954648D01*
X128271447Y-115942601D01*
X128200395Y-115897956D01*
X128178686Y-115880643D01*
X128119355Y-115821312D01*
X128102042Y-115799603D01*
X128057397Y-115728551D01*
X128045351Y-115703538D01*
X128017636Y-115624332D01*
X128011458Y-115597267D01*
X128001280Y-115506921D01*
X128000500Y-115493039D01*
X128000500Y-111378711D01*
X130149500Y-111378711D01*
X130149500Y-111621288D01*
X130181161Y-111861785D01*
X130243947Y-112096104D01*
X130336773Y-112320205D01*
X130336776Y-112320212D01*
X130458064Y-112530289D01*
X130458066Y-112530292D01*
X130458067Y-112530293D01*
X130605733Y-112722736D01*
X130605739Y-112722743D01*
X130777256Y-112894260D01*
X130777262Y-112894265D01*
X130969711Y-113041936D01*
X131179788Y-113163224D01*
X131403900Y-113256054D01*
X131638211Y-113318838D01*
X131818586Y-113342584D01*
X131878711Y-113350500D01*
X131878712Y-113350500D01*
X132121289Y-113350500D01*
X132169388Y-113344167D01*
X132361789Y-113318838D01*
X132596100Y-113256054D01*
X132820212Y-113163224D01*
X133030289Y-113041936D01*
X133222738Y-112894265D01*
X133394265Y-112722738D01*
X133541936Y-112530289D01*
X133663224Y-112320212D01*
X133756054Y-112096100D01*
X133818838Y-111861789D01*
X133850500Y-111621288D01*
X133850500Y-111378712D01*
X133850500Y-111378711D01*
X156149500Y-111378711D01*
X156149500Y-111621288D01*
X156181161Y-111861785D01*
X156243947Y-112096104D01*
X156336773Y-112320205D01*
X156336776Y-112320212D01*
X156458064Y-112530289D01*
X156458066Y-112530292D01*
X156458067Y-112530293D01*
X156605733Y-112722736D01*
X156605739Y-112722743D01*
X156777256Y-112894260D01*
X156777262Y-112894265D01*
X156969711Y-113041936D01*
X157179788Y-113163224D01*
X157403900Y-113256054D01*
X157638211Y-113318838D01*
X157818586Y-113342584D01*
X157878711Y-113350500D01*
X157878712Y-113350500D01*
X158121289Y-113350500D01*
X158169388Y-113344167D01*
X158361789Y-113318838D01*
X158596100Y-113256054D01*
X158820212Y-113163224D01*
X159030289Y-113041936D01*
X159222738Y-112894265D01*
X159394265Y-112722738D01*
X159541936Y-112530289D01*
X159663224Y-112320212D01*
X159756054Y-112096100D01*
X159818838Y-111861789D01*
X159850500Y-111621288D01*
X159850500Y-111378712D01*
X159818838Y-111138211D01*
X159756054Y-110903900D01*
X159663224Y-110679788D01*
X159541936Y-110469711D01*
X159394265Y-110277262D01*
X159394260Y-110277256D01*
X159222743Y-110105739D01*
X159222736Y-110105733D01*
X159030293Y-109958067D01*
X159030292Y-109958066D01*
X159030289Y-109958064D01*
X158820212Y-109836776D01*
X158820205Y-109836773D01*
X158596104Y-109743947D01*
X158361785Y-109681161D01*
X158121289Y-109649500D01*
X158121288Y-109649500D01*
X157878712Y-109649500D01*
X157878711Y-109649500D01*
X157638214Y-109681161D01*
X157403895Y-109743947D01*
X157179794Y-109836773D01*
X157179785Y-109836777D01*
X156969706Y-109958067D01*
X156777263Y-110105733D01*
X156777256Y-110105739D01*
X156605739Y-110277256D01*
X156605733Y-110277263D01*
X156458067Y-110469706D01*
X156336777Y-110679785D01*
X156336773Y-110679794D01*
X156243947Y-110903895D01*
X156181161Y-111138214D01*
X156149500Y-111378711D01*
X133850500Y-111378711D01*
X133818838Y-111138211D01*
X133756054Y-110903900D01*
X133663224Y-110679788D01*
X133541936Y-110469711D01*
X133394265Y-110277262D01*
X133394260Y-110277256D01*
X133222743Y-110105739D01*
X133222736Y-110105733D01*
X133030293Y-109958067D01*
X133030292Y-109958066D01*
X133030289Y-109958064D01*
X132820212Y-109836776D01*
X132820205Y-109836773D01*
X132596104Y-109743947D01*
X132361785Y-109681161D01*
X132121289Y-109649500D01*
X132121288Y-109649500D01*
X131878712Y-109649500D01*
X131878711Y-109649500D01*
X131638214Y-109681161D01*
X131403895Y-109743947D01*
X131179794Y-109836773D01*
X131179785Y-109836777D01*
X130969706Y-109958067D01*
X130777263Y-110105733D01*
X130777256Y-110105739D01*
X130605739Y-110277256D01*
X130605733Y-110277263D01*
X130458067Y-110469706D01*
X130336777Y-110679785D01*
X130336773Y-110679794D01*
X130243947Y-110903895D01*
X130181161Y-111138214D01*
X130149500Y-111378711D01*
X128000500Y-111378711D01*
X128000500Y-99888549D01*
X137299500Y-99888549D01*
X137299500Y-100111450D01*
X137299501Y-100111466D01*
X137328594Y-100332452D01*
X137328595Y-100332457D01*
X137328596Y-100332463D01*
X137328597Y-100332465D01*
X137386290Y-100547780D01*
X137386293Y-100547790D01*
X137471593Y-100753722D01*
X137471595Y-100753726D01*
X137583052Y-100946774D01*
X137583057Y-100946780D01*
X137583058Y-100946782D01*
X137718751Y-101123622D01*
X137718757Y-101123629D01*
X137876370Y-101281242D01*
X137876376Y-101281247D01*
X138053226Y-101416948D01*
X138246274Y-101528405D01*
X138452219Y-101613710D01*
X138667537Y-101671404D01*
X138888543Y-101700500D01*
X138888550Y-101700500D01*
X139111450Y-101700500D01*
X139111457Y-101700500D01*
X139332463Y-101671404D01*
X139547781Y-101613710D01*
X139753726Y-101528405D01*
X139946774Y-101416948D01*
X140123624Y-101281247D01*
X140281247Y-101123624D01*
X140416948Y-100946774D01*
X140528405Y-100753726D01*
X140613710Y-100547781D01*
X140671404Y-100332463D01*
X140700500Y-100111457D01*
X140700500Y-99888549D01*
X142599500Y-99888549D01*
X142599500Y-100111450D01*
X142599501Y-100111466D01*
X142628594Y-100332452D01*
X142628595Y-100332457D01*
X142628596Y-100332463D01*
X142628597Y-100332465D01*
X142686290Y-100547780D01*
X142686293Y-100547790D01*
X142771593Y-100753722D01*
X142771595Y-100753726D01*
X142883052Y-100946774D01*
X142883057Y-100946780D01*
X142883058Y-100946782D01*
X143018751Y-101123622D01*
X143018757Y-101123629D01*
X143176370Y-101281242D01*
X143176376Y-101281247D01*
X143353226Y-101416948D01*
X143546274Y-101528405D01*
X143752219Y-101613710D01*
X143967537Y-101671404D01*
X144188543Y-101700500D01*
X144188550Y-101700500D01*
X144411450Y-101700500D01*
X144411457Y-101700500D01*
X144632463Y-101671404D01*
X144847781Y-101613710D01*
X145053726Y-101528405D01*
X145246774Y-101416948D01*
X145423624Y-101281247D01*
X145581247Y-101123624D01*
X145716948Y-100946774D01*
X145828405Y-100753726D01*
X145913710Y-100547781D01*
X145971404Y-100332463D01*
X146000500Y-100111457D01*
X146000500Y-99888543D01*
X145971404Y-99667537D01*
X145913710Y-99452219D01*
X145828405Y-99246274D01*
X145716948Y-99053226D01*
X145581247Y-98876376D01*
X145581242Y-98876370D01*
X145423626Y-98718754D01*
X145399012Y-98699867D01*
X145357810Y-98643439D01*
X145350500Y-98601492D01*
X145350500Y-97334843D01*
X145370185Y-97267804D01*
X145386819Y-97247162D01*
X145491966Y-97142015D01*
X145491968Y-97142011D01*
X145491971Y-97142009D01*
X145559910Y-97048497D01*
X145612287Y-96976406D01*
X145705220Y-96794015D01*
X145768477Y-96599330D01*
X145800500Y-96397148D01*
X145800500Y-96192444D01*
X145768477Y-95990261D01*
X145705218Y-95795572D01*
X145671503Y-95729403D01*
X145612287Y-95613186D01*
X145590913Y-95583767D01*
X145491971Y-95447582D01*
X145347213Y-95302824D01*
X145181613Y-95182511D01*
X145181612Y-95182510D01*
X145181610Y-95182509D01*
X145113315Y-95147711D01*
X144999223Y-95089577D01*
X144804534Y-95026318D01*
X144629995Y-94998674D01*
X144602352Y-94994296D01*
X144397648Y-94994296D01*
X144373329Y-94998147D01*
X144195465Y-95026318D01*
X144000776Y-95089577D01*
X143818386Y-95182511D01*
X143652786Y-95302824D01*
X143508028Y-95447582D01*
X143387715Y-95613182D01*
X143294781Y-95795572D01*
X143231522Y-95990261D01*
X143199500Y-96192444D01*
X143199500Y-96397147D01*
X143231522Y-96599330D01*
X143294781Y-96794019D01*
X143387715Y-96976409D01*
X143508028Y-97142009D01*
X143613181Y-97247162D01*
X143646666Y-97308485D01*
X143649500Y-97334843D01*
X143649500Y-98345983D01*
X143629815Y-98413022D01*
X143577011Y-98458777D01*
X143572956Y-98460543D01*
X143546268Y-98471597D01*
X143353226Y-98583052D01*
X143353217Y-98583058D01*
X143176377Y-98718751D01*
X143176370Y-98718757D01*
X143018757Y-98876370D01*
X143018751Y-98876377D01*
X142883058Y-99053217D01*
X142883052Y-99053226D01*
X142771595Y-99246273D01*
X142771593Y-99246277D01*
X142686293Y-99452209D01*
X142686290Y-99452219D01*
X142628597Y-99667534D01*
X142628594Y-99667547D01*
X142599501Y-99888533D01*
X142599500Y-99888549D01*
X140700500Y-99888549D01*
X140700500Y-99888543D01*
X140671404Y-99667537D01*
X140613710Y-99452219D01*
X140528405Y-99246274D01*
X140416948Y-99053226D01*
X140281247Y-98876376D01*
X140281242Y-98876370D01*
X140123629Y-98718757D01*
X140123622Y-98718751D01*
X139946782Y-98583058D01*
X139946780Y-98583057D01*
X139946774Y-98583052D01*
X139753726Y-98471595D01*
X139722781Y-98458777D01*
X139617047Y-98414980D01*
X139562644Y-98371139D01*
X139540579Y-98304845D01*
X139540500Y-98300419D01*
X139540500Y-91540047D01*
X139560185Y-91473008D01*
X139576819Y-91452366D01*
X139627572Y-91401613D01*
X139681966Y-91347219D01*
X139681968Y-91347215D01*
X139681971Y-91347213D01*
X139734732Y-91274590D01*
X139802287Y-91181610D01*
X139895220Y-90999219D01*
X139958477Y-90804534D01*
X139990500Y-90602352D01*
X139990500Y-90397648D01*
X139958477Y-90195466D01*
X139895220Y-90000781D01*
X139895218Y-90000778D01*
X139895218Y-90000776D01*
X139861503Y-89934607D01*
X139802287Y-89818390D01*
X139782024Y-89790500D01*
X139681971Y-89652786D01*
X139611819Y-89582634D01*
X139578334Y-89521311D01*
X139575500Y-89494953D01*
X139575500Y-87466976D01*
X139595185Y-87399937D01*
X139647989Y-87354182D01*
X139675135Y-87346736D01*
X139674932Y-87345876D01*
X139682479Y-87344092D01*
X139682481Y-87344091D01*
X139682483Y-87344091D01*
X139817331Y-87293796D01*
X139932546Y-87207546D01*
X140018796Y-87092331D01*
X140069091Y-86957483D01*
X140075500Y-86897873D01*
X140075499Y-86873979D01*
X140078330Y-86860963D01*
X140088940Y-86841525D01*
X140095179Y-86820275D01*
X140111803Y-86799643D01*
X140111808Y-86799636D01*
X140111811Y-86799634D01*
X140111818Y-86799626D01*
X140782037Y-86129408D01*
X140799075Y-86192993D01*
X140864901Y-86307007D01*
X140957993Y-86400099D01*
X141072007Y-86465925D01*
X141135590Y-86482962D01*
X140503282Y-87115269D01*
X140503282Y-87115270D01*
X140557449Y-87154624D01*
X140746782Y-87251095D01*
X140948870Y-87316757D01*
X141158754Y-87350000D01*
X141371246Y-87350000D01*
X141581127Y-87316757D01*
X141581130Y-87316757D01*
X141783217Y-87251095D01*
X141972554Y-87154622D01*
X142026716Y-87115270D01*
X142026717Y-87115270D01*
X141394408Y-86482962D01*
X141457993Y-86465925D01*
X141572007Y-86400099D01*
X141665099Y-86307007D01*
X141730925Y-86192993D01*
X141747962Y-86129409D01*
X142380270Y-86761717D01*
X142380270Y-86761716D01*
X142419622Y-86707554D01*
X142516095Y-86518217D01*
X142581757Y-86316130D01*
X142581757Y-86316127D01*
X142615000Y-86106246D01*
X142615000Y-85893753D01*
X142581757Y-85683872D01*
X142581757Y-85683869D01*
X142516095Y-85481782D01*
X142419624Y-85292449D01*
X142404576Y-85271737D01*
X142404575Y-85271735D01*
X142380270Y-85238282D01*
X142380269Y-85238282D01*
X141747962Y-85870590D01*
X141730925Y-85807007D01*
X141665099Y-85692993D01*
X141572007Y-85599901D01*
X141457993Y-85534075D01*
X141394409Y-85517037D01*
X142026716Y-84884728D01*
X141972550Y-84845375D01*
X141783217Y-84748904D01*
X141581129Y-84683242D01*
X141371246Y-84650000D01*
X141158754Y-84650000D01*
X140948872Y-84683242D01*
X140948869Y-84683242D01*
X140746782Y-84748904D01*
X140557439Y-84845380D01*
X140503282Y-84884727D01*
X140503282Y-84884728D01*
X141135591Y-85517037D01*
X141072007Y-85534075D01*
X140957993Y-85599901D01*
X140864901Y-85692993D01*
X140799075Y-85807007D01*
X140782037Y-85870591D01*
X140111818Y-85200372D01*
X140078333Y-85139049D01*
X140078330Y-85139036D01*
X140075499Y-85126015D01*
X140075499Y-85102128D01*
X140069091Y-85042517D01*
X140040926Y-84967002D01*
X140018798Y-84907673D01*
X140018793Y-84907664D01*
X139932547Y-84792455D01*
X139932544Y-84792452D01*
X139817335Y-84706206D01*
X139817328Y-84706202D01*
X139682482Y-84655908D01*
X139682483Y-84655908D01*
X139622883Y-84649501D01*
X139622881Y-84649500D01*
X139622873Y-84649500D01*
X139622864Y-84649500D01*
X137827129Y-84649500D01*
X137827123Y-84649501D01*
X137767516Y-84655908D01*
X137632671Y-84706202D01*
X137632664Y-84706206D01*
X137517455Y-84792452D01*
X137517452Y-84792455D01*
X137431206Y-84907664D01*
X137431202Y-84907671D01*
X137380908Y-85042517D01*
X137374501Y-85102116D01*
X137374500Y-85102135D01*
X137374500Y-86897870D01*
X137374501Y-86897876D01*
X137380908Y-86957483D01*
X137431202Y-87092328D01*
X137431206Y-87092335D01*
X137517452Y-87207544D01*
X137517455Y-87207547D01*
X137632664Y-87293793D01*
X137632671Y-87293797D01*
X137767517Y-87344091D01*
X137775062Y-87345874D01*
X137774523Y-87348151D01*
X137828287Y-87370408D01*
X137868147Y-87427793D01*
X137874500Y-87466975D01*
X137874500Y-89424952D01*
X137854815Y-89491991D01*
X137838182Y-89512633D01*
X137698027Y-89652788D01*
X137577715Y-89818386D01*
X137484781Y-90000776D01*
X137421522Y-90195465D01*
X137389500Y-90397648D01*
X137389500Y-90602351D01*
X137421522Y-90804534D01*
X137484781Y-90999223D01*
X137548691Y-91124653D01*
X137576086Y-91178417D01*
X137577715Y-91181613D01*
X137698028Y-91347213D01*
X137803181Y-91452366D01*
X137836666Y-91513689D01*
X137839500Y-91540047D01*
X137839500Y-98704266D01*
X137819815Y-98771305D01*
X137803181Y-98791947D01*
X137718757Y-98876370D01*
X137718751Y-98876377D01*
X137583058Y-99053217D01*
X137583052Y-99053226D01*
X137471595Y-99246273D01*
X137471593Y-99246277D01*
X137386293Y-99452209D01*
X137386290Y-99452219D01*
X137328597Y-99667534D01*
X137328594Y-99667547D01*
X137299501Y-99888533D01*
X137299500Y-99888549D01*
X128000500Y-99888549D01*
X128000500Y-80878711D01*
X130149500Y-80878711D01*
X130149500Y-81121288D01*
X130181161Y-81361785D01*
X130243947Y-81596104D01*
X130336773Y-81820205D01*
X130336776Y-81820212D01*
X130458064Y-82030289D01*
X130458066Y-82030292D01*
X130458067Y-82030293D01*
X130605733Y-82222736D01*
X130605739Y-82222743D01*
X130777256Y-82394260D01*
X130777262Y-82394265D01*
X130969711Y-82541936D01*
X131179788Y-82663224D01*
X131403900Y-82756054D01*
X131638211Y-82818838D01*
X131818586Y-82842584D01*
X131878711Y-82850500D01*
X131878712Y-82850500D01*
X132121289Y-82850500D01*
X132169388Y-82844167D01*
X132361789Y-82818838D01*
X132596100Y-82756054D01*
X132820212Y-82663224D01*
X133030289Y-82541936D01*
X133222738Y-82394265D01*
X133394265Y-82222738D01*
X133541936Y-82030289D01*
X133663224Y-81820212D01*
X133756054Y-81596100D01*
X133818838Y-81361789D01*
X133850500Y-81121288D01*
X133850500Y-80878712D01*
X133850500Y-80878711D01*
X156149500Y-80878711D01*
X156149500Y-81121288D01*
X156181161Y-81361785D01*
X156243947Y-81596104D01*
X156336773Y-81820205D01*
X156336776Y-81820212D01*
X156458064Y-82030289D01*
X156458066Y-82030292D01*
X156458067Y-82030293D01*
X156605733Y-82222736D01*
X156605739Y-82222743D01*
X156777256Y-82394260D01*
X156777262Y-82394265D01*
X156969711Y-82541936D01*
X157179788Y-82663224D01*
X157403900Y-82756054D01*
X157638211Y-82818838D01*
X157818586Y-82842584D01*
X157878711Y-82850500D01*
X157878712Y-82850500D01*
X158121289Y-82850500D01*
X158169388Y-82844167D01*
X158361789Y-82818838D01*
X158596100Y-82756054D01*
X158820212Y-82663224D01*
X159030289Y-82541936D01*
X159222738Y-82394265D01*
X159394265Y-82222738D01*
X159541936Y-82030289D01*
X159663224Y-81820212D01*
X159756054Y-81596100D01*
X159818838Y-81361789D01*
X159850500Y-81121288D01*
X159850500Y-80878712D01*
X159818838Y-80638211D01*
X159756054Y-80403900D01*
X159663224Y-80179788D01*
X159541936Y-79969711D01*
X159394265Y-79777262D01*
X159394260Y-79777256D01*
X159222743Y-79605739D01*
X159222736Y-79605733D01*
X159030293Y-79458067D01*
X159030292Y-79458066D01*
X159030289Y-79458064D01*
X158820212Y-79336776D01*
X158820205Y-79336773D01*
X158596104Y-79243947D01*
X158361785Y-79181161D01*
X158121289Y-79149500D01*
X158121288Y-79149500D01*
X157878712Y-79149500D01*
X157878711Y-79149500D01*
X157638214Y-79181161D01*
X157403895Y-79243947D01*
X157179794Y-79336773D01*
X157179785Y-79336777D01*
X156969706Y-79458067D01*
X156777263Y-79605733D01*
X156777256Y-79605739D01*
X156605739Y-79777256D01*
X156605733Y-79777263D01*
X156458067Y-79969706D01*
X156336777Y-80179785D01*
X156336773Y-80179794D01*
X156243947Y-80403895D01*
X156181161Y-80638214D01*
X156149500Y-80878711D01*
X133850500Y-80878711D01*
X133818838Y-80638211D01*
X133756054Y-80403900D01*
X133663224Y-80179788D01*
X133541936Y-79969711D01*
X133394265Y-79777262D01*
X133394260Y-79777256D01*
X133222743Y-79605739D01*
X133222736Y-79605733D01*
X133030293Y-79458067D01*
X133030292Y-79458066D01*
X133030289Y-79458064D01*
X132820212Y-79336776D01*
X132820205Y-79336773D01*
X132596104Y-79243947D01*
X132361785Y-79181161D01*
X132121289Y-79149500D01*
X132121288Y-79149500D01*
X131878712Y-79149500D01*
X131878711Y-79149500D01*
X131638214Y-79181161D01*
X131403895Y-79243947D01*
X131179794Y-79336773D01*
X131179785Y-79336777D01*
X130969706Y-79458067D01*
X130777263Y-79605733D01*
X130777256Y-79605739D01*
X130605739Y-79777256D01*
X130605733Y-79777263D01*
X130458067Y-79969706D01*
X130336777Y-80179785D01*
X130336773Y-80179794D01*
X130243947Y-80403895D01*
X130181161Y-80638214D01*
X130149500Y-80878711D01*
X128000500Y-80878711D01*
X128000500Y-77506959D01*
X128001280Y-77493077D01*
X128001320Y-77492717D01*
X128011459Y-77402727D01*
X128017635Y-77375668D01*
X128045353Y-77296457D01*
X128057393Y-77271453D01*
X128102046Y-77200389D01*
X128119351Y-77178690D01*
X128178690Y-77119351D01*
X128200389Y-77102046D01*
X128271453Y-77057393D01*
X128296457Y-77045353D01*
X128375668Y-77017635D01*
X128402729Y-77011459D01*
X128478753Y-77002893D01*
X128493078Y-77001280D01*
X128506960Y-77000500D01*
X128565892Y-77000500D01*
X161434107Y-77000500D01*
X161493039Y-77000500D01*
X161506921Y-77001280D01*
G37*
%TD.AperFunction*%
%TD*%
M02*
